<?xml version="1.0" standalone="no"?><!DOCTYPE svg PUBLIC "-//W3C//DTD SVG 1.1//EN" "http://www.w3.org/Graphics/SVG/1.1/DTD/svg11.dtd"><svg t="1598925662475" class="icon" viewBox="0 0 1024 1024" version="1.1" xmlns="http://www.w3.org/2000/svg" p-id="14177" xmlns:xlink="http://www.w3.org/1999/xlink" width="200" height="200"><defs><style type="text/css"></style></defs><path d="M854.4 960c-16.9 0-33.8-4.1-49.4-12.4L120.2 585c-35.6-18.8-57.1-55.5-56.1-95.7 0.9-40.2 24.2-75.8 60.6-93L809.5 74.1C842.4 58.6 880.3 61 911 80.5c30.7 19.4 49 52.7 49 89.1v488.7c0 13.8-11.1 24.9-24.9 24.9-13.8 0-24.9-11.1-24.9-24.9V169.6c0-19.5-9.4-36.6-25.8-47-16.5-10.5-36-11.7-53.6-3.4L146 441.4c-19.5 9.2-31.5 27.5-32 49.1s10.6 40.5 29.6 50.6l684.8 362.6c17.4 9.2 37.9 8.6 54.8-1.5 16.9-10.2 27-28 27-47.7 0-13.8 11.1-24.9 24.9-24.9 13.8 0 24.9 11.1 24.9 24.9 0 37.3-19.1 71.1-51.1 90.4-16.9 10-35.7 15.1-54.5 15.1z" p-id="14178"></path></svg>