<?xml version="1.0" standalone="no"?><!DOCTYPE svg PUBLIC "-//W3C//DTD SVG 1.1//EN" "http://www.w3.org/Graphics/SVG/1.1/DTD/svg11.dtd"><svg t="1598669038944" class="icon" viewBox="0 0 1024 1024" version="1.1" xmlns="http://www.w3.org/2000/svg" p-id="3419" xmlns:xlink="http://www.w3.org/1999/xlink" width="200" height="200"><defs><style type="text/css"></style></defs><path d="M510.976 521.216m-369.664 0a369.664 369.664 0 1 0 739.328 0 369.664 369.664 0 1 0-739.328 0Z" fill="#FFC600" p-id="3420"></path><path d="M661.9136 557.6704c-6.9632-12.288-6.7584-20.2752-49.152-58.5728 0.2048-138.24-94.8224-234.0864-100.7616-240.0256v-0.2048s-0.2048 0-0.2048 0.2048l-0.2048-0.2048v0.2048c-5.9392 5.7344-100.5568 102.1952-99.7376 240.4352-42.1888 38.5024-41.7792 46.2848-48.7424 58.7776-12.6976 22.528-9.4208 112.64 2.6624 133.12 12.0832 20.48 31.9488 5.7344 38.7072-0.2048 6.7584-5.7344 36.864-43.2128 44.2368-41.5744 0 0 9.0112-1.8432 19.2512 7.7824 10.0352 9.6256 28.672 18.432 44.4416 19.8656h0.4096c15.7696-1.2288 34.2016-10.4448 44.4416-20.0704 10.24-9.6256 19.2512-7.9872 19.2512-7.9872 7.3728-1.8432 37.6832 35.84 44.4416 41.3696 6.7584 5.7344 26.8288 20.2752 38.7072-0.2048 12.288-20.0704 14.9504-110.1824 2.2528-132.7104z m-149.2992-53.0432c-26.4192 0.2048-47.7184-21.2992-47.9232-47.7184-0.2048-26.4192 21.2992-47.7184 47.7184-47.9232 26.4192-0.2048 47.7184 21.2992 47.9232 47.7184-0.2048 26.624-21.504 47.9232-47.7184 47.9232z m35.4304 191.6928c-12.0832 9.0112-24.1664 12.0832-35.2256 12.0832-11.0592 0.2048-23.1424-2.8672-35.2256-11.6736-10.8544-7.7824-20.48-6.7584-25.6 0.2048-5.12 6.7584-3.2768 47.5136 2.8672 56.32 6.144 8.8064 13.7216-5.7344 24.576-6.144 10.8544-0.6144 19.8656 21.0944 23.9616 33.3824 2.048 6.3488 5.3248 12.0832 9.8304 12.4928 4.5056-0.4096 7.5776-6.144 9.8304-12.4928 4.096-12.288 12.9024-33.9968 23.7568-33.5872 10.8544 0.4096 18.2272 14.9504 24.576 6.144 6.144-8.8064 7.9872-49.5616 2.6624-56.32-5.7344-7.168-15.36-8.192-26.0096-0.4096z m0 0" fill="#FFFFFF" p-id="3421"></path></svg>