<?xml version="1.0" standalone="no"?><!DOCTYPE svg PUBLIC "-//W3C//DTD SVG 1.1//EN" "http://www.w3.org/Graphics/SVG/1.1/DTD/svg11.dtd"><svg t="1598498375170" class="icon" viewBox="0 0 1024 1024" version="1.1" xmlns="http://www.w3.org/2000/svg" p-id="2712" xmlns:xlink="http://www.w3.org/1999/xlink" width="200" height="200"><defs><style type="text/css"></style></defs><path d="M769.297067 981.1968c-14.336 0-30.446933-4.096-45.397334-11.605333L510.498133 862.890667l-214.698666 106.564266a96.256 96.256 0 0 1-45.056 11.0592c-20.821333 0-41.1648-6.690133-57.275734-18.773333-30.037333-22.528-45.4656-61.576533-38.365866-97.0752l43.963733-227.874133L30.72 479.914667c-25.873067-25.941333-36.181333-65.194667-26.146133-100.215467l0.341333-1.160533a97.553067 97.553067 0 0 1 79.394133-67.310934l233.8816-42.461866L423.1168 55.569067C439.978667 21.777067 474.3168 0 510.498133 0c37.888 0 73.045333 22.528 87.790934 56.046933l104.584533 212.514134 233.949867 40.96c36.864 5.12 67.9936 32.3584 77.892266 67.9936 11.537067 35.566933 2.2528 74.001067-24.3712 100.625066l-0.546133 0.546134-167.867733 158.037333 42.3936 228.215467c6.826667 36.522667-7.645867 73.386667-37.888 96.324266-15.633067 12.834133-35.908267 19.8656-57.1392 19.8656z" fill="#4AC8AB" p-id="2713"></path></svg>