<?xml version="1.0" standalone="no"?><!DOCTYPE svg PUBLIC "-//W3C//DTD SVG 1.1//EN" "http://www.w3.org/Graphics/SVG/1.1/DTD/svg11.dtd"><svg t="1599530157118" class="icon" viewBox="0 0 1024 1024" version="1.1" xmlns="http://www.w3.org/2000/svg" p-id="9367" xmlns:xlink="http://www.w3.org/1999/xlink" width="200" height="200"><defs><style type="text/css"></style></defs><path d="M632.046 545.582c-10.542 0-19.087 8.545-19.087 19.087h-0.021c0 57.983-47.005 104.988-104.987 104.988-57.864 0-104.789-46.813-104.981-104.632 0-0.12 0.017-0.237 0.017-0.356 0-10.542-8.544-19.087-19.088-19.087s-19.088 8.545-19.088 19.087c0 79.067 64.096 143.162 143.162 143.162s143.163-64.096 143.163-143.162c-0.001-10.542-8.547-19.087-19.09-19.087z" fill="" p-id="9368"></path><path d="M959.05 516.85c0-36.489-24.093-67.343-57.236-77.542C872.567 249.415 708.451 104.01 510.37 104.01S148.172 249.415 118.926 439.308c-33.143 10.199-57.237 41.054-57.237 77.542 0 39.656 28.464 72.623 66.066 79.688 0.177 0.04 0.356 0.071 0.534 0.104 0.255 0.046 0.504 0.103 0.758 0.147-0.003-0.01-0.005-0.02-0.01-0.032 0.91 0.132 1.83 0.224 2.776 0.224 17.866 0 28.04-8.688 28.04-22.518a19.1 19.1 0 0 0-0.29-3.204c-0.085-0.42-0.173-0.838-0.256-1.256a359.317 359.317 0 0 1-6.844-69.91c0-197.667 160.241-357.906 357.906-357.906s357.905 160.24 357.905 357.906c0 148.094-89.952 275.163-218.197 329.591a38.005 38.005 0 0 0-22.804-7.557c-21.084 0-38.176 17.093-38.176 38.178 0 21.085 17.092 38.176 38.176 38.176 19.58 0 35.707-14.74 37.912-33.727C778.3 816.67 864.465 717.508 894.703 596.207c36.75-7.733 64.348-40.306 64.348-79.357z m-859.208 0c0-12.92 5.72-24.493 14.749-32.367a398.551 398.551 0 0 0 3.042 67.16c-10.772-7.803-17.791-20.471-17.791-34.793z m31.196 41.208z m-1.335 0.867z m9.298-3.462c-0.202 0.018-0.398 0.047-0.598 0.073 0.2-0.026 0.396-0.056 0.598-0.073z m-1.705 0.24z m-1.627 0.38c-0.262 0.073-0.526 0.14-0.783 0.223 0.257-0.084 0.52-0.151 0.783-0.223z m-1.309 0.415z m768.749-4.858a399.606 399.606 0 0 0 3.04-67.157c9.03 7.874 14.75 19.446 14.75 32.368 0 14.32-7.019 26.986-17.79 34.789z" fill="" p-id="9369"></path><path d="M815.783 500.093c0-168.676-136.738-305.414-305.413-305.414-168.676 0-305.414 136.738-305.414 305.414 0 168.674 136.74 305.412 305.414 305.412s305.413-136.737 305.413-305.412zM510.347 767.329c-147.59 0-267.236-119.646-267.236-267.236 0-147.592 119.647-267.237 267.236-267.237 147.59 0 267.236 119.646 267.236 267.237 0 147.59-119.645 267.236-267.236 267.236zM383.898 419.24z m-38.177 0zM627.274 419.24z m-38.177 0z" fill="" p-id="9370"></path></svg>